<?xml version="1.0" encoding="utf-8"?>
<!-- Generator: Adobe Illustrator 19.1.0, SVG Export Plug-In . SVG Version: 6.00 Build 0)  -->
<svg version="1.1" id="Layer_1" xmlns="http://www.w3.org/2000/svg" xmlns:xlink="http://www.w3.org/1999/xlink" x="0px" y="0px"
	 viewBox="0 0 249.1 64" style="enable-background:new 0 0 249.1 64;" xml:space="preserve">
<style type="text/css">
	.st0{fill:#7A7A7A;}
</style>
<g>
	<path class="st0" d="M49.3,47.1l-5-0.8c-4.2-0.5-4.7-1.5-4.7-2.4c0-1.9,2.8-2.7,5.6-2.7c5,0,6.8,1.6,7.4,3.5l3.9-1.3
		c-0.5-1.5-2.1-5.7-11.2-5.7c-1.6,0-9.9,0-9.9,6.3c0,3.2,2.7,5.4,7.6,6l5.1,0.7c3,0.4,4.6,1.3,4.6,2.7c0,1.8-2.8,2.9-6.2,2.9
		c-5.6,0-7.2-2.2-7.9-3.8l-4,1.2c0.5,1.6,2.7,6.1,11.8,6.1c5.7,0,10.4-1.9,10.4-6.9C56.8,49.7,54,47.9,49.3,47.1 M46.3,7.9H36.1V29
		h10.4c7,0,11.9-3.5,11.9-10.7C58.3,10.7,53,7.9,46.3,7.9 M44.4,25.5h-4.2V11.4h4.2c6.9,0,9.8,1.8,9.8,7
		C54.2,23.3,51.5,25.5,44.4,25.5 M106,20.8h7.7c3.6,0,9.5,0,9.5-6.5c0-6.5-5.9-6.5-9.5-6.5h-11.8V29h4.1V20.8z M106,11.4h8.6
		c2.4,0,4.4,0.2,4.4,2.9c0,2.7-2.1,2.9-4.4,2.9H106V11.4z M79.6,53.7L65.4,38.4h-4.4v21.2h4V43.8l14.7,15.8h3.8V38.4h-4V53.7z
		 M222.5,25.5h-15.2v-5.6h12.8v-3.6h-12.8v-4.9h14.9V7.9h-19V29h19.3V25.5z M192.8,50.5h12.8v-3.5h-12.8V42h14.9v-3.6h-19v21.2H208
		v-3.5h-15.2V50.5z M157.4,20.8h7.7c3.6,0,9.5,0,9.5-6.5c0-6.5-5.9-6.5-9.5-6.5h-11.8V29h4.1V20.8z M157.4,11.4h8.6
		c2.4,0,4.4,0.2,4.4,2.9c0,2.7-2.1,2.9-4.4,2.9h-8.6V11.4z M147.7,25.5h-15.2v-5.6h12.8v-3.6h-12.8v-4.9h14.8V7.9h-19V29h19.3V25.5z
		 M127.1,38.4h-11.8v21.2h4.1v-8.2h7.7c3.6,0,9.5,0,9.5-6.5C136.6,38.4,130.7,38.4,127.1,38.4 M128,47.8h-8.6V42h8.6
		c2.4,0,4.4,0.2,4.4,2.9C132.4,47.6,130.4,47.8,128,47.8 M83.5,14.2c0-5.2-3.6-6.3-8.6-6.3H62.1V29h4.1v-8.3h6.6L79,29H84l-6.5-8.6
		C80.7,20.2,83.5,18.1,83.5,14.2 M66.3,17.3v-6h8c3.4,0,5.1,0.5,5.1,3c0,2.5-1.7,3-5.1,3H66.3z M230.7,20.7h6.5l6.1,8.3h5.1
		l-6.5-8.6c3.1-0.2,5.9-2.3,5.9-6.2c0-5.2-3.6-6.3-8.6-6.3h-12.7V29h4.1V20.7z M230.7,11.3h8c3.4,0,5.1,0.5,5.1,3c0,2.5-1.7,3-5.1,3
		h-8V11.3z M152.1,38.4h-11.8v21.2h4.1v-8.2h7.7c3.6,0,9.5,0,9.5-6.5C161.6,38.4,155.7,38.4,152.1,38.4 M153,47.8h-8.6V42h8.6
		c2.4,0,4.4,0.2,4.4,2.9C157.4,47.6,155.3,47.8,153,47.8 M182.4,20.8h7.7c3.6,0,9.5,0,9.5-6.5c0-6.5-5.9-6.5-9.5-6.5h-11.8V29h4.1
		V20.8z M182.4,11.4h8.6c2.4,0,4.4,0.2,4.4,2.9c0,2.7-2.1,2.9-4.4,2.9h-8.6V11.4z M96.9,38.4L86.4,59.6h4.4l2.2-4.9h12.2l2.2,4.9
		h4.4l-10.3-21.2H96.9z M94.8,51.2l4.4-9.4l4.4,9.4H94.8z M169.4,38.4h-4.1v21.2h19.5v-3.7h-15.3V38.4z M249.1,39.8
		c0-1.9-1.7-1.9-2.8-1.9h-3.4v6.2h1.2v-2.4h2.2C247.4,41.7,249.1,41.7,249.1,39.8 M246.6,40.7h-2.5V39h2.5c0.7,0,1.3,0.1,1.3,0.8
		C247.9,40.6,247.3,40.7,246.6,40.7 M225,39.8c0-1.5-1.1-1.8-2.5-1.8h-3.7v6.2h1.2v-2.4h1.9l1.8,2.4h1.5l-1.9-2.5
		C224.1,41.5,225,40.9,225,39.8 M222.3,40.7h-2.3v-1.7h2.3c1,0,1.5,0.1,1.5,0.9C223.7,40.5,223.3,40.7,222.3,40.7 M240.1,41.4
		c0,1-0.4,1.9-2.1,1.9c-1.7,0-2.1-0.8-2.1-1.9v-3.4h-1.2v3.5c0,2,1.3,2.8,3.3,2.8c2,0,3.3-0.8,3.3-2.8v-3.5h-1.2V41.4z M214.1,44.3
		c1.2,0,1.8-0.4,2.3-0.7l0.2,0.6h0.7v-3.2H214v1h2.2c-0.3,0.9-1,1.3-2.1,1.3c-1.3,0-2.3-0.7-2.3-2.2c0-0.9,0.5-2.2,2.4-2.2
		c1.4,0,1.7,0.7,1.9,1h1.2c-0.3-1.6-1.9-2.1-3.3-2.1c-2.5,0-3.4,1.6-3.4,3.3C210.6,43.5,212.5,44.3,214.1,44.3 M229.8,37.8
		c-2.7,0-3.7,1.6-3.7,3.3c0,1.3,0.8,3.2,3.7,3.2c2.9,0,3.7-1.9,3.7-3.2C233.4,39.4,232.5,37.8,229.8,37.8 M229.8,43.2
		c-1.2,0-2.5-0.5-2.5-2.2c0-1.5,1.1-2.2,2.5-2.2c1.4,0,2.5,0.7,2.5,2.2C232.2,42.7,230.9,43.2,229.8,43.2"/>
	<path class="st0" d="M1.4,45.3c-3,6.3-1.3,14,5.7,17.4c7,3.4,13.6-0.2,16.4-6.6c3.6-8.3-5-17.2-1.2-25.6C16,31.3,5.3,37.1,1.4,45.3
		"/>
	<path class="st0" d="M5.7,14.3c-2-5.2-0.3-11.1,5.4-13.5c5.7-2.3,10.8,0.9,12.6,6.1c2.4,6.8-4.8,13.4-2.2,20.2
		C16.6,26.1,8.4,21,5.7,14.3"/>
	<path class="st0" d="M24.3,33.6c0,2,1.6,3.7,3.6,3.7c2,0,3.6-1.7,3.6-3.7c0-2-1.6-3.7-3.6-3.7C25.9,30,24.3,31.6,24.3,33.6"/>
	<path class="st0" d="M1.1,28.1c0,3.1,2.4,5.5,5.4,5.5c3,0,5.4-2.5,5.4-5.5c0-3-2.4-5.5-5.4-5.5C3.5,22.6,1.1,25.1,1.1,28.1"/>
	<path class="st0" d="M23.7,24.8c0,1.4,1.1,2.4,2.4,2.4c1.3,0,2.4-1.1,2.4-2.4c0-1.3-1.1-2.4-2.4-2.4C24.8,22.4,23.7,23.5,23.7,24.8
		"/>
</g>
</svg>
