<?xml version="1.0" encoding="utf-8"?>
<!-- Generator: Adobe Illustrator 19.1.0, SVG Export Plug-In . SVG Version: 6.00 Build 0)  -->
<svg version="1.1" id="Layer_1" xmlns="http://www.w3.org/2000/svg" xmlns:xlink="http://www.w3.org/1999/xlink" x="0px" y="0px"
	 viewBox="0 0 485.5 64" style="enable-background:new 0 0 485.5 64;" xml:space="preserve">
<style type="text/css">
	.st0{fill:#7A7A7A;}
</style>
<g>
	<polyline class="st0" points="132.5,9 142.8,9 142.3,16.5 132,16.5 132.5,9 	"/>
	<path class="st0" d="M415.8,46.7h-0.1c-2.3,2.2-4.5,3.7-8.7,3.7c-6.8,0-9.6-3.9-9.6-8.9c0-5.7,5.8-9.4,16.2-9.4h3.4
		c0.2-2.5,1-6.6-3.3-6.6c-3,0-3.8,2.9-3.9,4.3H400c0.2-3.7,1.8-6.2,4.8-7.5c3.1-1.4,6.8-1.7,10-1.7c5.8,0,13,2.9,12.5,10l-0.8,13.8
		c-0.1,1.2-0.1,2.5,0.1,5.9h-10.2L415.8,46.7 M411.1,44.7c5.1,0,5.4-4.7,5.6-8.5c-2.3,0-4.4-0.1-6,0.6c-1.6,0.8-2.9,2.2-3,4.2
		C407.6,43.1,409,44.7,411.1,44.7z"/>
	<polyline class="st0" points="450.2,50.2 453.1,9 464,9 461.1,50.2 450.2,50.2 	"/>
	<path class="st0" d="M273.8,25.7h0.1c2.8-3.6,6-4.2,9.5-4.2l-0.6,9.2c-0.7-0.1-1.5-0.1-2.2-0.1c-7.1,0-7.4,4.1-7.6,8.8l-0.6,10.7
		h-11.1l1.5-21.3c0.2-2.6,0.2-4.3,0.2-7.4h10.6L273.8,25.7"/>
	<polyline class="st0" points="282.6,50.2 285.5,9 296,9 293.1,50.2 282.6,50.2 	"/>
	<path class="st0" d="M198.2,9h10.7l-1.2,16.4h0.2c2.2-2.6,5.2-4.7,9.1-4.7c8.8,0,12.2,7.7,11.7,14.7c-0.5,7.1-4.2,15.2-14,15.2
		c-3.3,0-6.5-1.8-8-3.9h-0.2l-0.6,3.5h-10.6L198.2,9 M206.8,36.2c-0.2,3.5,0.7,8.4,4.6,8.4c5,0,6.2-5,6.4-9c0.2-3.5-0.5-8.7-4.8-8.7
		C207.6,27,206.9,32.4,206.8,36.2z"/>
	<path class="st0" d="M240.4,37.7c-0.3,4,0.6,7.2,4.6,7.2c3,0,4.9-2,4.9-3.9h10c-0.2,3.5-2.7,6.2-5.5,7.8c-2.6,1.6-5.6,1.9-8.8,1.9
		c-11.7,0-16.2-4.9-15.5-15.7c0.6-9.1,7.9-14.4,16.5-14.3c11.5,0.2,15.2,7,14.1,17.1H240.4 M250.8,32.3c0.1-1.5-0.2-3.1-1-4.3
		c-0.8-1.2-1.9-1.9-3.6-1.8c-3.8,0.2-4.8,2.8-5.3,6.1H250.8z"/>
	<polyline class="st0" points="89.9,9 102,9 99.1,50.2 87,50.2 89.9,9 	"/>
	<polyline class="st0" points="115.3,9 100.9,27.3 113.7,50.2 128.2,50.2 113.8,26.7 128.9,9 115.3,9 	"/>
	<polyline class="st0" points="131.5,21.5 141.8,21.5 139.8,50.2 129.5,50.2 131.5,21.5 	"/>
	<path class="st0" d="M154.7,21.5l0,3.9h0.1c3.2-4.2,7.6-4.6,10.3-4.6c3.9,0,7.9,2.2,8.7,5.1c2.2-3.4,6.2-5.1,10.5-5.2
		c6.3,0,10.6,4,10.2,10.4l-1.4,19.2h-11l1.2-16.9c0.1-2.7-0.1-5.8-3.7-5.8c-5.3,0-5.1,5.9-5.1,6.2l-1.1,16.5h-11l1.2-16.9
		c0.1-2.8-0.3-5.8-3.8-5.8c-5.6,0-5.4,5.9-5.4,6.2l-1.1,16.5h-11.4l2-28.7L154.7,21.5"/>
	<polyline class="st0" points="309.9,64 300,64 306.4,50.7 295.9,21.5 308.1,21.5 312.8,39.3 320.4,21.5 330.4,21.5 309.9,64 	"/>
	<polyline class="st0" points="331.5,27.3 345.4,27.3 340.9,36.2 327,36.2 331.5,27.3 	"/>
	<path class="st0" d="M367.6,8c8.5,0,17.1,3.7,16.8,14h-11.7c0-2.7-1.6-5.8-5.5-5.8c-4,0-8.6,3-9.4,11.5c-0.8,8.5,0.3,15,7.2,15
		c6,0,7.2-5.2,7.3-6.2h11.6c0,4.6-3.8,14.1-19.5,14.1c-16.6,0-19.5-12.1-18.1-23.3C347.3,17.9,354,8,367.6,8"/>
	<polyline class="st0" points="384.6,50.2 387.5,9 398,9 395.1,50.2 384.6,50.2 	"/>
	<path class="st0" d="M441,25.7h0.1c2.8-3.6,6-4.2,9.6-4.2l-0.6,9.2c-0.8-0.1-1.5-0.1-2.3-0.1c-7.1,0-7.4,4.1-7.6,8.8l-0.6,10.7
		h-11.1l1.5-21.3c0.2-2.6,0.2-4.3,0.2-7.4h10.6L441,25.7"/>
	<polyline class="st0" points="463,34.2 473.2,21.4 485.5,21.4 474.5,33.5 484.9,50.1 471.6,50.1 463,34.2 	"/>
	<path class="st0" d="M0,29.9c0,16.5,15.4,29.9,34.3,29.9c19,0,34.3-13.4,34.3-29.9C68.6,13.4,53.3,0,34.3,0C15.3,0,0,13.4,0,29.9
		 M34.3,57C16.9,57,2.7,44.9,2.7,29.9c0-15,14.1-27.1,31.6-27.1c17.5,0,31.6,12.1,31.6,27.1C65.9,44.9,51.8,57,34.3,57z"/>
	<path class="st0" d="M27,50.2v-8.3c-0.7,0.5-2.4,1.8-6,1.8c-4.9,0-14.1,0-14.1,0V32.1c0,0,6.6,0,8.7,0c2.2,0,2.3-1.3,2.3-1.7
		c0-3.3-5.8-8-12.1-12.8l17.1,0c1,0.8,2.7,1.9,4.2,3.6V9h14.5v12.2c1.5-1.6,3.1-2.8,4.2-3.6l17.1,0c-6.4,4.8-12.1,9.4-12.1,12.8
		c0,0.4,0.1,1.7,2.3,1.7c2.1,0,8.7,0,8.7,0v11.6c0,0-9.2,0-14.1,0c-3.6,0-5.3-1.4-6-1.8v8.3H27 M38.8,47.3V34.1
		c2.5,5.5,6.8,6.7,10.4,6.7c3.2,0,9.8,0,9.8,0v-5.9c0,0-3.3,0-6.9,0c-3.5,0-4.6-2.6-4.6-4.1c0-3.7,3-6.4,7.4-10.3H47
		c-3.4,2.2-6.7,5.7-8.2,9.7V11.9h-8.9v18.3c-1.5-3.9-4.8-7.5-8.2-9.7h-7.8c4.4,3.9,7.4,6.7,7.4,10.3c0,1.5-1.1,4.1-4.6,4.1
		c-3.5,0-6.9,0-6.9,0v5.9c0,0,6.6,0,9.8,0c3.5,0,7.9-1.2,10.4-6.7v13.2H38.8z"/>
</g>
</svg>
