<?xml version="1.0" encoding="utf-8"?>
<!-- Generator: Adobe Illustrator 19.1.0, SVG Export Plug-In . SVG Version: 6.00 Build 0)  -->
<svg version="1.1" id="Layer_1" xmlns="http://www.w3.org/2000/svg" xmlns:xlink="http://www.w3.org/1999/xlink" x="0px" y="0px"
	 viewBox="0 0 307.7 64" style="enable-background:new 0 0 307.7 64;" xml:space="preserve">
<style type="text/css">
	.st0{fill:#7A7A7A;}
</style>
<g>
	<g>
		<path class="st0" d="M266.7,0h2.6c0.3,0.5,0.1,1,0.1,1.5c-0.5,7.1-0.9,14.2-1.3,21.3c-0.1,0.9,0,1.9-0.4,2.7
			c-3.8,6.6-7.6,13.1-11.4,19.7c-0.7,0.9-1.9,1.4-2.8,2.1c-5.1,3.5-10.3,6.9-15.4,10.4c-0.9,0.6-1.8,1.3-2.8,1.8
			c-0.4-0.8-1-1.6-1.3-2.5C244.7,38,255.8,19,266.7,0z"/>
		<path class="st0" d="M271.9,0h3c1.8,3.5,3.9,6.8,5.8,10.3c6,10.4,12,20.8,18,31.2c3,5.1,5.8,10.3,8.9,15.3v0.6
			c-0.6,0.7-1,1.5-1.5,2.3c-6.6-4.4-13.1-8.8-19.7-13.2c-0.5-0.4-1.2-0.7-1.5-1.3c-3.8-6.6-7.6-13.3-11.5-19.9
			c-0.3-0.5-0.2-1-0.3-1.6C272.9,15.8,272.3,7.9,271.9,0z"/>
		<path class="st0" d="M258.8,50.4c3.1-0.2,6.1,0.1,9.2-0.1c4.6,0,9.3,0,13.9,0c0.7,0,1.2,0.3,1.8,0.6c7.1,3.6,14.2,7.2,21.2,10.8
			c0,0.8-0.8,1.6-1.1,2.4h-65.9c-0.4-0.8-1.2-1.6-1.3-2.5c3.5-1.9,7.1-3.6,10.6-5.4C251.1,54.3,254.9,52.2,258.8,50.4z"/>
	</g>
	<g>
		<g>
			<path class="st0" d="M0,16.2c6.2,0,12.3,0,18.5,0c2.7,0,5.4,0.1,8,0.7c3.4,0.7,6.7,2.3,8.8,5.1c2.4,3.1,2.9,7.2,2.4,11
				c-0.5,3.4-2.3,6.6-5.2,8.5c-3,2.1-6.8,2.6-10.3,2.3c5.2,5.8,10.4,11.6,15.6,17.3c0.5,0.6,1,1.1,1.5,1.8c-3.8,0.1-7.7,0-11.5,0
				c-5.5-6-10.9-12.1-16.4-18.2c-0.7-0.8-1.4-1.6-2.2-2.3C9,49.2,9.1,56,9.1,62.8c-3,0.2-6.1,0-9.1,0.1V16.2z M9.1,24.3
				c0,4.3,0,8.5,0,12.8c3.9,0,7.9,0,11.8,0c2,0,4.2-0.2,6-1.3c1.3-0.7,2.1-2.1,2.4-3.5c0.4-1.9,0.1-4.1-1.3-5.5
				c-1.7-1.8-4.3-2.3-6.7-2.5C17.2,24.3,13.1,24.3,9.1,24.3z"/>
		</g>
		<g>
			<path class="st0" d="M116.1,16.3c3-0.1,6.1-0.1,9.1,0c0,3.8,0,7.6,0,11.5c1.5-1,3.2-1.7,5-2c4.6-0.8,9.7-0.1,13.6,2.8
				c3.6,2.6,5.6,7,5.6,11.5c0,3.1,0,6.2,0,9.2c0,3.8-1.4,7.6-4,10.3c-2.9,2.9-6.9,4.2-10.9,4.5h-3.6c-3.3-0.2-6.4-1.5-9-3.4
				c-2,0.6-3.5,2.7-5.8,2.2C116.1,47.3,116.1,31.8,116.1,16.3z M130.3,33.7c-2.7,0.5-4.9,2.9-5.1,5.7c-0.1,3.3,0,6.6-0.1,9.8
				c0,2.5,1.4,4.9,3.6,5.9c2.5,1.2,5.6,1.2,8.1-0.1c2.1-1,3.4-3.3,3.4-5.6c0-3.1,0-6.1,0-9.2c0-2.2-1-4.4-2.8-5.6
				C135.4,33.4,132.7,33.1,130.3,33.7z"/>
		</g>
		<path class="st0" d="M191.9,16.2c3,0,6,0,9,0c0,8.3,0,16.7,0,25c2.4-2.4,4.5-5.1,6.8-7.6c2.4-2.7,4.8-5.5,7.2-8.2
			c3.7,0,7.4,0.1,11.1-0.1c0.1,0.5-0.4,0.8-0.6,1.1c-5.1,5.8-10.2,11.6-15.3,17.4c4.2,4.8,8.6,9.6,12.9,14.4c1.3,1.6,2.9,3,4.1,4.7
			c-3.6,0.1-7.2,0-10.9,0c-0.7,0.1-1-0.7-1.4-1.1c-4.6-5.1-9.2-10.3-13.9-15.3c0,5.5,0,10.9,0,16.4c-3,0-6,0-9,0
			C191.9,47.3,191.9,31.8,191.9,16.2z"/>
		<g>
			<path class="st0" d="M44.5,29.7c3.2-3.1,7.8-4.4,12.2-4.3c4-0.1,8.3,0.9,11.5,3.3c2.7,2,4.4,5,5.1,8.2c0.5,2.5,0.3,5.1,0.4,7.7
				c0,0.9,0.1,1.8-0.1,2.6c-8.1-0.1-16.2-0.1-24.2,0c-0.1,2.4,0.3,5.2,2.1,6.9c1.7,1.5,4,1.8,6.2,2c2.2,0,4.5-0.2,6.3-1.6
				c0.8-0.6,1-1.7,1.4-2.6c2.8-0.1,5.5-0.1,8.3,0c-0.3,2.9-1.3,5.9-3.4,7.9c-2.4,2.4-5.8,3.6-9.2,3.8c-2.3-0.1-4.7,0-7,0
				c-3.6-0.5-7.1-2-9.6-4.6c-2.6-2.7-4.1-6.5-4-10.2c0-3.1,0-6.2,0-9.2C40.4,36,41.8,32.3,44.5,29.7z M50.9,35.2
				c-1.4,1.4-1.7,3.5-1.7,5.4c5.2,0,10.3,0,15.5,0c0.1-1.6-0.1-3.2-1-4.6c-1.1-1.9-3.4-2.8-5.5-3C55.6,32.8,52.7,33.2,50.9,35.2z"/>
		</g>
		<g>
			<path class="st0" d="M82.6,29.4c3.3-2.9,7.9-4.1,12.2-4c4.4,0,9.1,1.2,12.4,4.4c3,2.8,4.4,7.1,4.2,11.1c-0.1,2.1,0.1,4.3-0.1,6.4
				c-8-0.1-16.1,0-24.1-0.1c-0.4,2.3,0.1,4.8,1.6,6.6c1.6,1.9,4.3,2.3,6.7,2.4c2.4-0.1,5.3-0.3,6.8-2.4c0.5-0.5,0.4-1.4,0.9-1.9
				c2.7,0,5.4,0,8.1,0c-0.2,3.1-1.4,6.3-3.8,8.4c-2.4,2.2-5.7,3.2-8.9,3.5c-2.2-0.1-4.5-0.1-6.7-0.1c-4.4-0.5-8.7-2.7-11.2-6.4
				c-1.7-2.4-2.5-5.2-2.5-8.1c0-3.1,0-6.2,0-9.2C78,36,79.6,32,82.6,29.4z M88.7,35.1c-1.4,1.4-1.8,3.5-1.7,5.5c5.1,0,10.3,0,15.4,0
				c0-1.7-0.2-3.6-1.4-5c-1.3-1.7-3.5-2.5-5.6-2.6C93,32.9,90.4,33.3,88.7,35.1z"/>
		</g>
		<g>
			<path class="st0" d="M167.1,25.6c4.7-0.6,9.8-0.2,13.8,2.4c3,1.8,5,4.9,5.8,8.3c0.7,2.7,0.4,5.5,0.5,8.3c-0.1,2.7,0.2,5.4-0.4,8
				c-0.7,3.4-2.7,6.6-5.7,8.5c-2.2,1.5-4.7,2.3-7.3,2.6c-2,0-4.1,0-6.1,0c-4.2-0.4-8.4-2.3-11-5.7c-1.5-1.9-2.3-4.3-2.6-6.7
				c-0.3-2-0.1-4.1-0.2-6.2c0.1-3.2-0.3-6.6,0.7-9.7c0.9-3.1,3-5.9,5.8-7.6C162.5,26.6,164.8,25.9,167.1,25.6z M167.8,33.7
				c-1.4,0.4-2.8,1.2-3.6,2.4c-0.9,1.3-1.2,2.9-1.2,4.5c0,2.7,0,5.3,0,8c0,1.7,0.4,3.5,1.5,4.8c1.1,1.4,2.8,2.1,4.5,2.4
				c2.5,0.4,5.3,0,7.2-1.8c1.5-1.4,2.1-3.4,2.1-5.4c0-2.8,0-5.5,0-8.3c0-2-0.8-4.1-2.4-5.3C173.6,33.3,170.5,33,167.8,33.7z"/>
		</g>
	</g>
</g>
</svg>
