<?xml version="1.0" encoding="utf-8"?>
<!-- Generator: Adobe Illustrator 19.1.0, SVG Export Plug-In . SVG Version: 6.00 Build 0)  -->
<svg version="1.1" id="Layer_1" xmlns="http://www.w3.org/2000/svg" xmlns:xlink="http://www.w3.org/1999/xlink" x="0px" y="0px"
	 viewBox="0 0 271.6 64" style="enable-background:new 0 0 271.6 64;" xml:space="preserve">
<style type="text/css">
	.st0{fill:#7A7A7A;}
</style>
<g>
	<g>
		<path class="st0" d="M157.2,33.9c0-6.3-2.7-11.9-11.8-11.9c-4.7,0-8.4,1.3-10.4,2.5l1.5,5.1c1.9-1.2,4.8-2.1,7.6-2.1
			c4.6,0,5.4,2.6,5.4,4.3v0.4c-10.1,0-16.5,3.5-16.5,10.6c0,4.3,3.2,8.4,8.9,8.4c3.5,0,6.4-1.4,8.1-3.6h0.2c0,0,1.2,4.8,7.5,3
			c-0.3-2-0.4-4.1-0.4-6.7V33.9z M149.7,40.6c0,0.5,0,1-0.2,1.5c-0.6,1.9-2.6,3.6-5.1,3.6c-2.1,0-3.7-1.2-3.7-3.7
			c0-3.8,4.2-4.9,9-4.9V40.6z"/>
		<path class="st0" d="M0,13.4c0,0,6.6,27,7.6,31.4c1.2,5.1,3.4,7,9.8,5.7l4.1-16.8c1-4.2,1.7-7.1,2.4-11.4h0.1
			c0.5,4.3,1.1,7.2,2,11.4c0,0,1.7,7.6,2.5,11.6c0.9,4,3.3,6.5,9.5,5.1L48,13.4h-7.9l-3.4,16.1c-0.9,4.7-1.7,8.3-2.3,12.6h-0.1
			c-0.6-4.2-1.3-7.7-2.2-12.3l-3.5-16.4h-8.3l-3.7,16c-1.1,4.8-2,8.8-2.7,12.9h-0.1c-0.6-3.9-1.5-8.8-2.4-13.5c0,0-2.2-11.4-3-15.3
			H0z"/>
		<path class="st0" d="M70.5,33.9c0-6.3-2.7-11.9-11.8-11.9c-4.7,0-8.4,1.3-10.4,2.5l1.5,5.1c1.9-1.2,4.8-2.1,7.6-2.1
			c4.6,0,5.4,2.6,5.4,4.3v0.4c-10.1,0-16.5,3.5-16.5,10.6c0,4.3,3.2,8.4,8.9,8.4c3.5,0,6.4-1.4,8.1-3.6h0.2c0,0,1.2,4.8,7.5,3
			c-0.3-2-0.4-4.1-0.4-6.7V33.9z M63,40.6c0,0.5,0,1-0.2,1.5c-0.6,1.9-2.6,3.6-5.1,3.6c-2.1,0-3.7-1.2-3.7-3.7c0-3.8,4.2-4.9,9-4.9
			V40.6z"/>
		<polygon class="st0" points="83.1,42.7 83.1,13.4 75.5,13.4 75.5,50.6 83.1,50.6 		"/>
		<path class="st0" d="M181.7,13.4c0,3.6,0,27.4,0,27.4c0,3.8,0.7,6.4,2.2,8c1.3,1.4,3.5,2.3,6.1,2.3c2.2,0,4.4-0.4,5.5-0.8
			l-0.1-5.9c-0.8,0.2-1.7,0.3-2.9,0.3c-2.6,0-3.4-1.6-3.4-5V29.3h6.6v-7.1h-6.6v-8.8H181.7z"/>
		<path class="st0" d="M162.3,22.7v27.9h7.8V36.3c0-0.8,0-1.4,0.2-2.1c0.6-3,2.9-4.9,6.2-4.9c0.9,0,1.5,0.1,2.2,0.2v-7.3
			c-0.6-0.1-1-0.2-1.7-0.2c-2.9,0-6.2,1.9-7.6,5.9h-0.2v-5.3H162.3z"/>
		<path class="st0" d="M88.3,22.7v27.9h7.6V34.2c0-0.8,0.1-1.6,0.4-2.3c0.6-1.6,2.2-3.6,4.6-3.6c3.1,0,4.5,2.6,4.5,6.3v15.9h7.6V34
			c0-0.7,0.1-1.6,0.3-2.3c0.6-1.9,2.3-3.4,4.5-3.4c3.1,0,4.6,2.5,4.6,6.9c0,0,0,11.8,0,15.3h7.6V34.1c0-8.7-4.4-12.1-9.4-12.1
			c-2.2,0-3.9,0.6-5.5,1.5c-1.3,0.8-2.5,2-3.5,3.5h-0.1c-1.2-3-4-5-7.7-5c-4.7,0-6.8,2.4-8.1,4.4h-0.1v-3.8H88.3z"/>
	</g>
	<g>
		<g>
			<g>
				<path class="st0" d="M236.5,21.5c1.5,0,2.7-0.8,2.9-1.8L240.9,3c0-1.7-1.9-3-4.4-3c-2.4,0-4.4,1.4-4.4,3l1.5,16.7
					C233.8,20.8,235,21.5,236.5,21.5L236.5,21.5z"/>
				<path class="st0" d="M227.5,26.8c0.8-1.3,0.7-2.8-0.1-3.4l-13.8-9.7c-1.4-0.8-3.6,0.2-4.8,2.3c-1.2,2.1-1,4.5,0.4,5.3l15.2,7.1
					C225.4,28.7,226.7,28.1,227.5,26.8L227.5,26.8z"/>
				<path class="st0" d="M245.6,26.8c0.8,1.3,2,2,3,1.6l15.2-7.1c1.4-0.8,1.6-3.2,0.4-5.3c-1.2-2.1-3.4-3.1-4.8-2.3l-13.8,9.7
					C244.9,24,244.8,25.5,245.6,26.8L245.6,26.8z"/>
			</g>
			<g>
				<path class="st0" d="M236.5,42.5c1.5,0,2.7,0.8,2.9,1.8l1.5,16.7c0,1.7-1.9,3-4.4,3c-2.4,0-4.4-1.4-4.4-3l1.5-16.7
					C233.8,43.2,235,42.5,236.5,42.5L236.5,42.5z"/>
				<path class="st0" d="M245.6,37.2c0.8-1.3,2-2,3-1.6l15.2,7.1c1.4,0.8,1.6,3.2,0.4,5.3c-1.2,2.1-3.4,3.1-4.8,2.3l-13.8-9.6
					C244.9,40,244.8,38.5,245.6,37.2L245.6,37.2z"/>
				<path class="st0" d="M227.5,37.2c0.8,1.3,0.7,2.8-0.1,3.4l-13.8,9.6c-1.4,0.8-3.6-0.2-4.8-2.3c-1.2-2.1-1-4.5,0.4-5.3l15.2-7.1
					C225.4,35.3,226.7,35.9,227.5,37.2L227.5,37.2z"/>
			</g>
		</g>
		<g>
			<path class="st0" d="M269.2,46.9c1.3,0,2.4,1,2.4,2.4c0,1.4-1.1,2.4-2.4,2.4c-1.4,0-2.4-1-2.4-2.4
				C266.7,47.9,267.8,46.9,269.2,46.9L269.2,46.9z M269.1,47.3c-1.1,0-1.9,0.9-1.9,2c0,1.1,0.8,2,1.9,2c1.1,0,1.9-0.9,1.9-2
				C271,48.2,270.3,47.3,269.1,47.3L269.1,47.3z M268.7,50.6h-0.5v-2.5c0.3,0,0.5-0.1,0.9-0.1c0.4,0,0.6,0.1,0.8,0.2
				c0.2,0.1,0.3,0.3,0.3,0.5c0,0.3-0.2,0.5-0.5,0.6v0c0.2,0.1,0.3,0.3,0.4,0.6c0.1,0.4,0.1,0.5,0.2,0.6h-0.5
				c-0.1-0.1-0.1-0.3-0.2-0.7c-0.1-0.3-0.2-0.4-0.6-0.4h-0.3V50.6z M268.7,49.2h0.3c0.3,0,0.6-0.1,0.6-0.4c0-0.2-0.1-0.4-0.6-0.4
				c-0.2,0-0.3,0-0.4,0V49.2z"/>
		</g>
	</g>
</g>
</svg>
