<?xml version="1.0" encoding="utf-8"?>
<!-- Generator: Adobe Illustrator 19.1.0, SVG Export Plug-In . SVG Version: 6.00 Build 0)  -->
<svg version="1.1" id="Layer_1" xmlns="http://www.w3.org/2000/svg" xmlns:xlink="http://www.w3.org/1999/xlink" x="0px" y="0px"
	 viewBox="0 0 57.9 64" style="enable-background:new 0 0 57.9 64;" xml:space="preserve">
<style type="text/css">
	.st0{fill:#7A7A7A;}
</style>
<g>
	<g>
		<path class="st0" d="M7.5,56.3c-0.1-0.3-0.4-1-0.4-1.5c-0.2-1.1,0.4-1.8,0.9-2c0.6-0.2,0.8,0.1,1.1,0.8c0.3,1.1,0.3,2.5,0.2,4.4
			c-0.1,2.7-1.5,6-4.9,5.9c-2.9-0.1-4.2-2-4.3-4.8c-0.1-1.4,0-2.7,0.6-4.6c0.3-1,0.6-1.4,1.5-1.6c0.7-0.1,0.7,0.6,0.5,1.5
			c-0.4,2-0.5,3-0.4,5.2C2.3,62,3.4,63,4.6,63c1.8,0,2.6-1.5,2.9-3.6C7.8,57.6,7.6,56.8,7.5,56.3z M45.7,58.6c0.7,0,0.9,0.8,0.7,1.3
			c-0.2,0.5-0.8,1.1-1.7,1.2C44.5,60.7,44.4,58.6,45.7,58.6z M32.7,59.8c0-0.6-0.3-1-0.7-1c-0.3,0-1,0.3-1,1.4
			c0,0.8,0.3,1.2,0.4,1.4C32.4,61.2,32.7,60.4,32.7,59.8z M22.4,53c0-0.5-0.5-0.9-1-0.9c-0.6,0-1.2,0.7-1.2,1.5c0,0.5,0.4,1,1,1
			C21.9,54.6,22.4,53.7,22.4,53z M27.8,54.9c-0.1-0.9-0.3-1.3-0.8-1.3c-0.7,0-1,2.1-0.8,4.3c0.1,1.4,0.3,1.6,0.5,1.6
			C27,59.5,27.9,57,27.8,54.9z M49.8,58.4c-0.4,1.7-1.7,4.2-3.5,4.2c-0.4,0-1.2-0.2-1.2-0.6c0-0.5,2.9-0.5,2.9-2.8
			c0-0.8-0.8-2-1.9-2c-1.5,0-3,1.6-3,3.9c0,2,1.3,2.7,2.5,2.7c2.2,0,3.5-1.8,4.2-3.3c0.3,1,0.5,3.3,1.4,3.3c0.3,0,0.6-0.2,1-1.1
			c1-2.2,2-4.8,3.3-4.8c0.5,0,0.2,0.9,1.4,0.9c0.6,0,1-0.5,1-1c0-0.8-0.7-1.4-1.8-1.4c-3.1,0-3.8,4.7-4.3,4.7
			c-0.8,0-0.6-3.8-1.2-3.8C50.1,57.5,49.9,58.1,49.8,58.4z M23.2,62.4c0.5,0,1.4-0.2,2-1.2c-0.4-0.9-0.7-2.6-0.7-3.2
			c-0.2-3.2,1-6.2,2.4-6.3c1-0.1,1.8,0.9,1.9,2.4c0.2,4-1.1,5.7-1.8,7.1c0.1,0.6,1.1,1.5,2,1.5c0.3,0,0.7-0.2,0.8-0.3
			c-0.1-0.2-0.1-0.5-0.1-1c0-2.3,1.5-4.3,2.8-4.3c1,0,1.6,1.4,1.6,2.3c0,1.1-0.9,1.9-2.2,2.8c0.2,0.2,0.7,0.4,1,0.4
			c1.9,0,2.9-2.3,3.6-4.4c0.1-0.4,0.4-1,0.8-1c0.8,0,1.1,5.2,2.5,5.2c0.6,0,1-1.2,1-2.1c0-0.7-0.2-0.7-0.2-1.7c0-1.1,0.6-2,1.3-2
			c0.5,0,0.6,0.5,0.6,1c0,2.1-1.5,6.1-3.8,6.1c-1.7,0-1.6-2.9-2.2-2.9c-0.7,0-1.6,3-4.9,3c-0.5,0-1.1-0.3-1.6-0.8
			c-0.8,0.5-1.5,0.8-2.2,0.8c-1.2,0-1.8-1.3-2.3-1.3c-0.6,0-1.3,1.3-3.3,1.3c-1.6,0-1.9-2.1-2.4-2.1c-0.5,0-1.3,2.1-2.1,2.1
			c-1.4,0-1.7-3.7-2.9-3.7c-1,0-4,3.7-4.8,3.7c-0.3,0-0.5-0.3-0.4-0.6c0-0.5,0.4-1.7,0.6-2.3c0.3-1,0.5-2.1,0.7-2.5
			c0.1-0.4,0.5-0.6,0.8-0.6c0.1,0,0.2,0.3,0.2,0.5c0.2,0.8,0.4,1.7,0.7,1.7c0.5,0,2-3,2.9-3c1.1,0,1.2,4.6,2.7,4.6
			c0.5,0,0.9-0.6,1.2-1.3c0-1.2,0.4-3,1.4-3c0.7,0,1,1.6,0.5,2.9C21.5,62,22.5,62.4,23.2,62.4"/>
	</g>
	<path class="st0" d="M46.4,10.4c-0.2,0-0.6,0-0.8-0.4c-0.2-0.3-0.1-0.8-0.4-1.1C45.5,9,45.8,9,46,9c0.8,0,1.6-0.5,2.1-0.5
		c0.4,0,0.5,0.2,0.5,0.5C48.7,9.7,47.1,10.4,46.4,10.4z M46.7,12.3c1.8,0,3.5-1.5,3.5-2.7c0-0.6-0.3-1.1-1-1.2
		c0.1,0.2,0.2,0.3,0.2,0.6c0,1-1.5,2-3.1,2c-0.6,0-0.8,0.4-0.8,0.6C45.6,12.1,46.1,12.3,46.7,12.3z M46.6,13.1
		c0.2,1.7,2.8,3.9,3.5,3.9c0.5,0,0.6-2.2,0.6-3.9c0-1,0.1-1.7-0.5-1.9C49.4,12.8,47.3,13.2,46.6,13.1"/>
	<path class="st0" d="M7,24.2c0.6,0,0.5-3.7,1.4-3.7c0.2,0,0.3,0.2,0.3,0.5c0,0.8-0.4,2-0.4,2.7c0,0.3,0.1,0.4,0.2,0.4
		c0.4,0,1.2-4,1.9-4c0.2,0,0.3,0.2,0.3,0.5c0,0.8-1.1,3.3-1.1,4c0,0.1,0,0.2,0.1,0.2c0.4,0,1.3-1.9,1.6-2.9c0.2-0.5,0.4-0.8,0.6-0.8
		c0.2,0,0.3,0.2,0.3,0.6c0,1-0.9,3.2-1.7,4.7c-0.6,1.2-1.5,2.8-1.5,3.8c0,0.5,0.1,1,0.8,1.6c-1.1-0.1-1.6-0.2-2-1.1
		c-1.9,3.8,3.5,3.4,1.6,6.7c-0.3-0.6-3-1.2-3-4.7c0-3,2.6-4.8,2.6-6c0-0.2-0.1-0.5-0.3-0.7c-0.6-0.5-0.6-0.9-1.1-0.9
		c-0.3,0-0.7,0.8-0.3,1.5c0.1,0.2,0.3,0.4,0.3,0.6C7.8,27.7,7,29,6.4,29c-0.5,0-1-1.4-1-3.5c0-1.9,0.4-3.9,1-3.9
		c0.2,0,0.2,0.1,0.2,0.2c0,0.2-0.1,0.7-0.1,1.5C6.6,24.1,6.8,24.2,7,24.2"/>
	<path class="st0" d="M11.4,29.3c0.7,0,1.4-0.5,1.4-1.8v-1.8c0-0.7,0.1-1.5,0.5-2c-0.1,0.2-0.1,0.5-0.1,0.7c0,1.5,0.8,2.6,0.8,4
		c0,0.5-0.2,0.8-0.6,0.8c-0.4,0-0.4-0.4-0.5-0.4c-0.1,0-0.2,0.2-0.2,0.5c0,0.4,0.3,1,1,1c0.6,0,1.1-0.6,1.1-1.2c0-1.6-1.2-3.3-1.2-5
		c0-0.7,0.2-1.2,0.4-1.6c0,3.5,3,6.1,3,7.5c0,0.3-0.2,0.6-0.6,0.6c-0.4,0-0.6-0.3-0.6-0.6c0-0.1,0-0.2-0.1-0.2
		c-0.1,0-0.4,0.4-0.4,0.8c0,0.6,0.5,1.3,1.4,1.3c1,0,1.5-0.8,1.5-1.6c0-1.8-3.6-4.6-3.6-7.6c0-0.5,0.1-1.3,0.5-2
		c-2.3,1.5-3,3.5-3,5.2c0,1.5-0.1,2.3-0.8,2.3c-0.4,0-0.5-0.4-0.7-0.4c-0.1,0-0.2,0.3-0.2,0.4C10.5,29,11,29.3,11.4,29.3"/>
	<path class="st0" d="M38.1,9.5c0.2-0.1,1.2,0.1,2.5-0.5c0.2-0.1,0.3-0.1,0.5-0.1c0.6,0,0.5,0.7,1,0.7c0.4,0,1-0.4,1.3-0.4
		c0.5,0,1.3,1.7,1.3,2.4c0,0.9-1.4,1.4-3,1.4c-2.3,0-3.8-2-3.8-3.4C38,9.6,38.1,9.5,38.1,9.5z M42,11.7c0.8,0,1.4-0.4,1.4-0.6
		c0-0.1-0.1-0.1-0.3-0.1c-0.2,0-0.7,0-1.6-0.2c-0.7-0.1-1.3-0.4-1.5-0.4c-0.1,0-0.1,0-0.1,0.1C39.8,11,40.7,11.7,42,11.7"/>
	<path class="st0" d="M11.8,36c-0.6,0.1-1.5,1.1-1.5,2.5c0,1.7,1.8,4.4,4.9,4.4c2.6,0,3.2-1.8,3.2-3c0-2.7-1.6-4.5-3.8-4.5
		c-1.2,0-2.2,0.8-2.2,2.1c0,1.2,0.9,2.9,3,2.9c1,0,1.6-0.7,1.6-1.5c0-0.8-0.7-1.9-1.8-1.9c-0.3,0-0.5,0.2-0.5,0.5
		c0,0.4,0.6,0.8,1.3,0.8c0.2,0,0.3,0,0.4-0.1c0,0.1,0.1,0.1,0.1,0.2c0,0.4-0.4,0.7-1,0.7c-0.9,0-1.8-0.7-1.8-1.7
		c0-0.6,0.5-1.1,1.3-1.1c1.6,0,2.5,1.4,2.5,2.8c0,1.2-0.7,2-2.1,2C12.6,41.1,11.2,38.5,11.8,36"/>
	<path class="st0" d="M31.9,46.3c0.8,0,0.8-0.1,1.1-0.1c0.3,0,0.3,0.2,0.3,0.3c0,0.4-0.9,0.9-2.4,0.9c-0.9,0-1.4-0.5-1.6-1
		c-0.9,0.6-2.2,1.1-3.5,1.1c-3.6,0-4.5-1.6-5.7-2.1c-0.9-0.4-2.2,0.4-4-1.7c0.2,0.1,0.6,0.1,0.8,0.1c1.6,0,2.5-0.8,2.5-2.1
		c0-0.2,0-0.3,0-0.5c0.5,0.2,1.6,1,1.9,2.5c0,0.2,0.8,0.3,1.2,0.3c0.6,0,1.4-0.3,1.6-1.3c2.1-0.2,3.5-1.4,3.8-3
		c0.8,0.2,1.6,0.9,1.8,1.3c0.3-0.1,0.7-0.2,1.1-0.2c0.6,0,1.2,0.1,2,0.3c0-0.2,0.1-0.5,0.4-0.5c0.5,0,0.4,0.6,0.6,0.9
		c0.1,0.2,0.5,0.3,0.5,0.6c0,0.3-0.3,0.5-0.5,0.5c-0.1,0-0.2,0-0.2,0c-0.4,0.1-0.4,2.7-1.8,2.7c-1.1,0-2.1-0.9-2.5-2
		c-0.1-0.3-0.4-0.5-0.6-0.5c-0.3,0-0.4,0.1-0.8,0.4c-1,1-2.5,1.9-4.5,1.9c-0.6,0-1.1-0.1-1.2-0.1c-0.1,0-0.1,0-0.1,0
		c0,0.1,0.6,0.6,1.9,0.6c3.1,0,3.9-1.7,4.4-1.7c0.1,0,0.3,0,0.4,0.3C29.4,45.9,30.9,46.3,31.9,46.3z M30.6,42.8
		c0,0.4,0.3,0.7,0.7,0.7s0.7-0.3,0.7-0.7c0-0.4-0.3-0.7-0.7-0.7S30.6,42.4,30.6,42.8"/>
	<path class="st0" d="M44.5,34c-0.2,0-0.5,0.2-0.5,0.7c0,0.5,0.4,0.9,0.6,1c0.1,0.1,0.3,0.1,0.5,0.1c0.5,0,0.9-0.1,0.9-0.6
		C46.1,34.6,45.3,34,44.5,34z M42.6,35.1c-0.4,0-2.4,2.7-3.7,2.7c-0.3,0-0.6-0.6-0.6-1.1c0-0.2,0.2-0.4,0.7-0.5c3-0.7,2.4-3,4.9-3
		c1.4,0,3,1,3,3.2c0,2.3-3.3,5.2-3.8,5.2c-0.4,0-0.8-0.6-0.8-1c0-0.1,0.1-0.3,0.4-0.4c1.7-0.7,2.7-2.2,2.7-3c0-0.2-0.1-0.4-0.3-0.4
		c-0.3,0-1.6,2.9-3,2.9c-1,0-2-0.9-2-1.3c0-0.7,2.9-2,2.9-3C42.9,35.1,42.7,35.1,42.6,35.1"/>
	<path class="st0" d="M7.7,12c0,0-0.5,0.4-1.1,0.4c-0.8,0-1.4-0.6-1.4-1.4c0-0.5,0.3-1.1,0.9-1.4c0,0.1,0,0.2,0,0.3
		C6.2,10.9,6.7,11.7,7.7,12z M11.5,15.4c-0.4,0.5-0.8,1.2-0.8,2c0,1,0.6,1.7,1.5,1.7c0.9,0,1.3-0.7,1.3-1.5
		C13.5,16.4,12.4,15.6,11.5,15.4z M5.7,16.1c0,0.1-0.1,0.1-0.1,0.2c0,0.2,0.2,0.3,0.3,0.3c0.1,0,0.2,0,0.3,0c0.4,0,0.9,0.3,1.6,0.3
		c0.4,0,0.9-0.1,1.5-0.4c1.3-0.6,1.8-2.2,1.8-2.5c0-0.3-0.3-0.3-0.5-0.6c-0.2-0.3-0.1-0.6-0.3-0.7c-0.1-0.1-0.3-0.1-0.7-0.1
		c-0.1,0-0.2,0-0.4,0c-0.6,0-1.3,0.1-2,0.6C5.7,14,5.9,15.7,5.7,16.1z M9.8,13.9c0.1,0.2,0.5,0.4,0.5,0.5c0,0.2-0.1,0.6-0.4,0.6
		c-0.6,0-1.1-0.9-1.1-1.5c0-0.3,0.2-0.4,0.5-0.4c0.1,0,0.2,0,0.3,0.1C9.6,13.3,9.6,13.6,9.8,13.9z M8.2,16C7.6,16,7,15.3,7,14.7
		c0-0.4,0.3-0.8,0.5-0.8c0.1,0,0.1,0.1,0.1,0.2c0.1,0.9,0.7,1.4,1.2,1.6c0.1,0,0.1,0.1,0.1,0.1C8.8,15.9,8.5,16,8.2,16z M9.7,11.6
		c0.1-0.3,0.2-0.6,0.2-1c0-0.8-0.4-2.1-1.6-2.1C7.6,8.4,7.1,9,7.1,9.6C7.1,11,8.5,11.6,9.7,11.6z M5.1,18.6c0,1.3,0.4,2,1.1,2
		c0.6,0,1.3-0.4,2.2-1.2c-0.7,0.2-1.2,0.3-1.7,0.3C6.1,19.7,5.7,19.4,5.1,18.6z M5.7,17.1c0,0.1,0,0.2,0,0.3c0,0.8,0.4,1.3,1,1.3
		c0.4,0,1-0.3,1.4-0.8c-0.2,0-0.4,0.1-0.6,0.1C6.9,17.8,6.2,17.6,5.7,17.1z M10.1,16.8c-0.4,0.1-1.3,0.6-1.3,1.5c0,0.6,0.5,1,1.1,1
		c0.3,0,0.5-0.1,0.7-0.2c-0.5-0.5-0.7-1-0.7-1.5C9.9,17.3,10,17,10.1,16.8z M10.7,12c0,0.4,0.3,0.7,0.7,0.7c0.4,0,0.7-0.3,0.7-0.7
		c0-0.4-0.3-0.7-0.7-0.7C11,11.3,10.7,11.6,10.7,12z M11.6,13.6c0,0.4,0.3,0.7,0.7,0.7c0.4,0,0.7-0.3,0.7-0.7c0-0.4-0.3-0.7-0.7-0.7
		C11.9,12.9,11.6,13.2,11.6,13.6"/>
	<path class="st0" d="M39.1,22.2c0-0.4,0.3-0.7,0.7-0.7c0.4,0,0.7,0.3,0.7,0.7c0,0.4-0.3,0.7-0.7,0.7C39.4,22.9,39.1,22.6,39.1,22.2
		z M32.9,16.8c0,0.4,0.3,0.7,0.7,0.7c0.4,0,0.7-0.3,0.7-0.7c0-0.4-0.3-0.7-0.7-0.7C33.2,16.1,32.9,16.4,32.9,16.8z M32.3,19.3
		c0,0.5,0.5,1,1,1c0.5,0,1-0.5,1-1c0-0.5-0.5-1-1-1C32.8,18.3,32.3,18.7,32.3,19.3z M34.5,18.2c0,0.6,0.5,1.1,1.1,1.1
		c0.6,0,1.1-0.5,1.1-1.1c0-0.6-0.5-1.1-1.1-1.1C35,17.1,34.5,17.6,34.5,18.2z M34.6,15.9c0,0.4,0.3,0.7,0.7,0.7
		c0.4,0,0.7-0.3,0.7-0.7c0-0.4-0.3-0.7-0.7-0.7C34.9,15.2,34.6,15.5,34.6,15.9z M37.8,14.2c0,0.4,0.3,0.7,0.7,0.7
		c0.4,0,0.7-0.3,0.7-0.7c0-0.4-0.3-0.7-0.7-0.7C38.1,13.5,37.8,13.8,37.8,14.2z M36.5,16.3c0,0.6,0.5,1.1,1.1,1.1
		c0.6,0,1.1-0.5,1.1-1.1c0-0.6-0.5-1.1-1.1-1.1C37,15.2,36.5,15.7,36.5,16.3z M34.7,20.5c0,0.4,0.3,0.7,0.7,0.7
		c0.4,0,0.7-0.3,0.7-0.7c0-0.4-0.3-0.7-0.7-0.7C35,19.8,34.7,20.1,34.7,20.5z M37,19.1c0,0.4,0.3,0.7,0.7,0.7c0.4,0,0.7-0.3,0.7-0.7
		c0-0.4-0.3-0.7-0.7-0.7C37.3,18.4,37,18.7,37,19.1z M36.3,21.5c0,0.7,0.5,1.2,1.2,1.2c0.7,0,1.2-0.5,1.2-1.2c0-0.7-0.5-1.2-1.2-1.2
		C36.9,20.3,36.3,20.9,36.3,21.5z M38.9,20c0,0.5,0.4,0.8,0.8,0.8c0.5,0,0.8-0.4,0.8-0.8c0-0.5-0.4-0.8-0.8-0.8
		C39.2,19.2,38.9,19.6,38.9,20z M38.8,17.8c0,0.4,0.3,0.7,0.7,0.7c0.4,0,0.7-0.3,0.7-0.7c0-0.4-0.3-0.7-0.7-0.7
		C39.1,17.1,38.8,17.4,38.8,17.8"/>
	<path class="st0" d="M40.6,40.9c-0.5,0.4-1.5,1.1-3.3,1.1c-1,0-1.4-0.3-1.5-0.3c-0.2,0-0.4,0.2-0.6,0.4c-0.4,0.5-1,1.4-1,2.4
		c0,0.7,0.5,1.4,1.6,1.4c3.3,0,5.8-2.1,5.8-3.7C41.6,41.3,41,40.9,40.6,40.9z M39.7,40.7c0.1-0.1,0.2-0.3,0.2-0.5v-0.4
		c0-0.5-0.8-0.8-1.8-0.8c-1.3,0-2,0.6-2,0.8v0.8c0,0.3,0.8,0.7,1.7,0.7C38.5,41.3,39.2,41.1,39.7,40.7z M39.5,42.5
		c0.1,0,0.2,0.1,0.2,0.4c0,0.4-0.2,0.9-0.8,1.3c-0.4,0.3-1,0.5-1.9,0.6c0.1-0.4,0.2-0.9,0.2-1.3c0-0.1,0-0.2,0-0.4h0.2
		C38.8,43,39.4,42.5,39.5,42.5"/>
	<path class="st0" d="M32.8,21c0.2,1.5,2.2,0.7,2.2,2.6c0,0.3-0.1,0.7-0.1,1c0,0.4,0,0.7,0.3,0.7c0.3,0,0.4-0.2,0.4-0.5
		c0-0.3-0.1-0.6-0.1-0.8c0-0.6,0.4-0.8,0.7-0.8c0.7,0,1.2,0.7,2.2,0.7c-0.2,1.1-2.6,0.8-2.6,2.1c0,0.6,0.6,0.8,1,0.8
		c0.4,0,0.5-0.1,0.5-0.4c0-0.2,0-0.4,0-0.5c0-0.1,0.1-0.1,0.1-0.1c0.4,0,2.3,1.4,2.3,1.9c0,0.4-2,0.8-2.6,0.8
		c-0.2,0-0.2-0.1-0.2-0.2c0-0.1,0.3-0.5,0.3-0.7c0-0.2-0.3-0.3-1-0.3c-0.3,0-0.6,0-0.6,0.3c0,0.5,0.8,1.1,0.8,1.5
		c0,0.4-0.2,0.6-0.8,0.6c-0.5,0-1.2-0.4-1.2-1c0-0.5,0.5-1,0.5-1.3c0-0.1-0.1-0.2-0.3-0.2c-0.7,0-0.8,1.7-3.1,1.9
		c0.4-0.3,0.7-0.7,0.7-1.5c0-0.4-0.1-0.7-0.1-1.1c0-0.5,0.2-0.8,0.6-0.8c0.7,0,1,0.9,1.4,0.9c0.2,0,0.5-0.2,0.5-0.5
		c0-1.3-2.6-1.1-2.6-3C32.2,22.5,32.3,21.8,32.8,21z M41.2,26.1c0,0.4,0.1,1,0.6,1c0.4,0,0.7-0.6,0.7-1.2c0-0.7-0.1-1.3-0.1-1.5
		c0-0.1,0.1-0.2,0.1-0.2c0.3,0,0.5,0.7,0.8,0.7c0.3,0,0.8-0.6,1-0.6c0.1,0,0.1,0.1,0.1,0.1c0,0.3-0.4,0.8-0.4,1.1c0,0.2,1,0.2,1,0.4
		c0,0.3-1.1,0.3-1.6,0.5c-0.5,0.2-0.8,0.5-0.8,0.8c0,0.4,0.4,0.4,0.8,0.4c1.2,0,2-0.6,2.3-0.6c0.1,0,0.1,0,0.1,0.1
		c0,0.2-0.6,0.8-0.6,1c0,0.3,1.1,0.7,1.1,0.8c0,0.1-0.1,0.1-0.2,0.1c-0.2,0-0.5-0.1-0.7-0.1c-0.1,0-0.3,0-0.3,0.1
		c-0.1,0.1,0,1.1-0.2,1.1c-0.2,0-0.8-2.1-2.2-2.1c-0.2,0-0.3,0.2-0.3,0.4c0,0.7,0.7,1.5,1.3,1.9c0.3,0.2,0.8,0.4,0.8,0.5
		c0,0.2-1.1,0-1.1,0.4c0,0.3,0.1,0.8,0.1,1.1c0,0.1,0,0.2-0.1,0.2c-0.2,0-0.7-1-1-1c-0.2,0-0.7,0.6-0.9,0.6c-0.1,0-0.1-0.1-0.1-0.1
		c0-0.4,0.7-1.3,0.7-2.2c0-0.4-0.1-1.3-0.6-1.3c-0.4,0-0.9,0.7-1.1,1.3c-0.1,0.4,0,1.9-0.3,1.9c-0.3,0-0.2-1-0.5-1
		c-0.3,0-0.8,0.5-1,0.5c0,0-0.1,0-0.1-0.1c0-0.2,0.5-0.9,0.5-1c0-0.3-1.2-0.3-1.2-0.5c0-0.1,0.5-0.2,0.9-0.3
		c0.9-0.2,2.2-0.8,2.2-1.7c0-1-1-1.5-1.6-1.9c-0.3-0.2-0.7-0.4-0.7-0.5c0-0.1,0.4-0.1,0.6-0.1c0.3,0,0.5,0,0.5-0.2
		c0-0.2,0-0.5,0-0.7c0-0.2,0-0.3,0.1-0.3c0.3,0,0.6,0.9,0.8,0.9c0.3,0,0.7-0.7,0.9-0.7c0.1,0,0.1,0.1,0.1,0.2
		C41.5,24.7,41.2,25.5,41.2,26.1"/>
	<path class="st0" d="M33.3,31c0.8,0.1,1,0.4,1,0.6c0,0.4-0.4,0.5-0.7,0.5c-0.2,0-0.5-0.1-0.8-0.1c-0.4,0-0.8,0.1-1.1,0.5
		c0.2,0,0.6,0.2,0.6,0.5c0,1-2.8,0.2-2.8,2.8c0,1.4,1.4,2.9,3.6,2.9c1.1,0,1.9-0.4,1.9-0.8c0-0.3-0.6-0.1-0.6-0.4
		c0-0.1,0.2-0.4,0.2-0.5c0-0.1-0.1-0.2-0.2-0.2c-0.3,0-0.9,0.5-2.1,0.5c-1,0-1.9-0.5-1.9-1.3c0-0.2,0.1-0.2,0.2-0.2
		c0.1,0,0.2,0.1,0.4,0.1c0.1,0,0.1-0.1,0.1-0.3c0-0.2,0-0.7,0.3-0.7c0.3,0,1,1.2,3.4,1.2c0.8,0,2.4-0.2,3-0.7c0,1.9-1.5,4.5-4.7,4.5
		c-3.3,0-5.1-2.6-5.1-5.1c0-2.7,2.2-5.1,5.2-5.1c0.8,0,1.4,0.3,1.4,0.6C34.6,30.7,33.4,30.5,33.3,31z M38.7,31.9
		c0.1,0.2,0.2,0.4,0.2,0.6c0,0.5-0.3,1-0.3,1.5c0,0.6,0.4,1.1,1.1,1.1c0.7,0,1.2-0.6,1.2-1.3C40.9,32.8,40,32,38.7,31.9z M32.9,33.1
		c0.2,0.2,0.2,0.4,0.2,0.5c0,0.3-0.1,0.5-0.1,0.8c0,0.4,0.3,0.8,0.8,0.8c0.5,0,0.8-0.4,0.8-0.8C34.6,33.7,33.9,33.1,32.9,33.1z
		 M35.2,30.1c1.9,0.4,2.9,1.7,2.9,3c0,0.9-0.6,1.7-1.6,1.7c-0.9,0-1.5-0.6-1.5-1.6c0-0.7,0.6-1.5,0.6-2.3
		C35.6,30.7,35.5,30.4,35.2,30.1z M36.2,32.4c0,0.2,0.2,0.4,0.4,0.4c0.3,0,0.5-0.2,0.5-0.5c0-0.4-0.3-0.9-0.7-0.9
		c-0.1,0-0.1,0.2-0.1,0.4C36.2,32.1,36.2,32.3,36.2,32.4"/>
	<path class="st0" d="M16.7,14.3c0.6,0,1.3-3.2,1.3-3.8c0-0.1-0.1-0.2-0.2-0.2c-0.5,0-1.3,3.1-1.3,3.8
		C16.5,14.1,16.6,14.3,16.7,14.3z M21,15.3c0.4,0,0.9-1.7,0.9-2.7c0-0.2,0-0.5-0.1-0.5c-0.4,0-1,1.7-1,2.7
		C20.8,15.1,20.9,15.3,21,15.3z M18.2,13.7c0.2,0,0.4-0.2,0.9-0.7c0-0.2,0-0.4,0-0.7c0-0.4-0.1-0.7-0.4-0.7c-0.5,0-0.8,1.4-0.8,1.8
		C17.9,13.5,18.1,13.7,18.2,13.7z M20.6,13c0-0.3-0.1-0.4-0.1-0.4c-0.2,0-0.4,0.2-0.7,0.7c0,0.6,0.1,0.9,0.3,0.9
		C20.3,14.2,20.6,13.6,20.6,13z M21.9,10.9c1.2,0,1.7,1,1.7,2.1c0,0.5-0.1,1.2-0.4,1.2c-0.2,0-0.2-0.4-0.2-0.8
		c0-0.5-0.1-0.6-0.3-0.6c-0.3,0-0.5,0.7-0.5,1.4c0,0.4,0.1,0.9,0.4,0.9c0.2,0,0.3-0.1,0.4-0.2c-0.1,0.8-0.7,1.5-1.5,1.5
		c-1.5,0-2.1-1.8-2.3-2.9c-0.9,1-1.8,1.7-3.3,1.7c-1.4,0-2.1-1.1-2.1-2.1c0-0.3,0.1-1.1,0.5-1.1c0.4,0,0.1,1.4,0.9,1.4
		c0.2,0,0.6-0.2,0.8-0.8c0.1-0.4,0.2-0.7,0.2-1c0-0.5-0.1-0.8-0.5-0.8c-0.3,0-0.7,0.2-0.8,0.4c0.4-1.3,1.4-1.9,2.6-1.9
		c1.4,0,2.1,1.2,2.1,2.6c0,0.2,0,0.4-0.1,0.6C20.2,11.6,21,10.9,21.9,10.9"/>
	<path class="st0" d="M18.6,15.6c-0.8,0-0.8,0.9-0.8,2.8c-0.6-1.2-1.5-2.5-2.6-2.5c-0.7,0-1,0.5-1,1.4c0,0.2,0,0.4,0.1,0.6
		c0.1-0.3,0.4-0.4,0.7-0.4c0.8,0,1.7,0.6,2.3,1.4c-0.7-0.1-1.4-0.2-1.9-0.2c-0.4,0-0.7,0-0.9,0.2c-0.5,0.2-1.2,1-1.2,2.1
		c0,0.2,0,0.4,0.1,0.6c0.6-1.4,2.3-2,3.3-2c0.2,0,0.4,0,0.5,0c-0.5,0.5-0.7,1.4-0.7,1.9c0,0.3-0.1,0.3-0.3,0.3
		c0,0.6,0.5,1.4,0.5,1.9c0,0.2-0.1,0.3-0.2,0.3c0,0.8,0.8,1.3,0.8,1.8c0,0.1,0,0.2-0.1,0.3c0.1,0.3,0.9,0.9,1,1.1
		c0.1,0.3,0.3,0.4,0.4,0.4c0.3,0,0.8-0.4,0.8-0.7c0-0.1-0.1-0.2-0.2-0.3c-0.3-0.2-0.5-0.8-0.7-1.1c-0.1,0-0.3-0.1-0.3-0.3
		c-0.1-0.4-0.1-1-0.2-1.4c-0.2-0.1-0.3-0.1-0.3-0.6c0-0.2,0.1-1.1,0.1-1.4c-0.1,0-0.2-0.1-0.2-0.3c0-0.6,0.6-1,0.7-1.7
		c1,0.7,1.2,1.5,1.2,2.2c0,0.4-0.1,0.7-0.1,1c0.7-0.4,1.8-0.9,1.8-2c0-0.7-0.3-1.4-2.3-1.7c0.6-0.2,1.4-0.4,2-0.4
		c1.1,0,1.8,0.4,1.9,1.1c0.2-0.4,0.4-0.8,0.4-1.1c0-0.9-0.7-1.4-1.6-1.4c-1.1,0-2,0.6-3,1.3c0.5-1,0.8-1.5,1.3-1.5
		c0.1,0,0.2,0,0.3,0C19.8,16.4,19.1,15.6,18.6,15.6"/>
	<path class="st0" d="M48.3,28.3c0.9,0,1.6,1.1,1.6,2.5c0,1.4-0.7,3-1.9,4c0-2.4-2.9-1.6-2.9-3.3c0-0.7,0.5-1.2,1.2-1.2
		c0.6,0,1,0.2,1.3,0.5c-0.3-0.3-0.5-0.7-0.5-1.1C47.1,28.9,47.5,28.3,48.3,28.3"/>
	<path class="st0" d="M32.6,11.6c0.5,0.4,0.9,0.6,1.4,0.6c0.2,0,0.4-0.1,0.5-0.1c0.2,0,0.3,0.1,0.3,0.2c0,0.2-0.2,0.5-0.4,0.7
		c0.2,0.1,0.4,0.1,0.7,0.1c1,0,2.1-0.6,2.1-2.2c0.2,0.3,0.3,0.9,0.3,1.1c0,1.9-1.4,2.7-2.7,2.7c-0.8,0-1.3-0.3-1.4-0.3
		c-0.3,0-0.3,0.7-0.5,0.7c-0.4-0.1-0.8-1-0.8-1.9C32.1,12.6,32.3,12,32.6,11.6z M35.2,10.3c-0.1-0.2-0.7-0.4-0.9-0.4
		c-0.8,0-1.3,0.5-1.4,1c-0.1-0.2-0.1-0.4-0.1-0.6c0-0.8,0.5-1.7,1.8-1.7c1.1,0,1.6,0.6,1.7,0.6c0.2,0,0.4-0.2,0.5-0.2
		C37,9.1,37,9.4,37,9.6c0,0.7-0.3,1.9-1.1,2.4c-0.1-0.3-0.4-0.6-0.9-0.8c-0.1-0.1-0.2-0.2-0.2-0.3C34.9,10.7,35,10.4,35.2,10.3"/>
	<path class="st0" d="M20.3,6.5c0,0.6,2.2,3.6,2.6,3.6c0.4,0,0.6-0.6,0.6-1.1c0-0.1,0-0.3-0.1-0.4c-0.3-0.4-2.6-2.2-3-2.2
		C20.4,6.4,20.3,6.4,20.3,6.5z M7.4,4.6c0,0.4-1.3,1.5-1.8,1.5C5.4,6.2,5.4,6,5.4,5.8c0-0.4,0.2-0.8,0.4-1c0.2-0.2,0.8-0.3,1.2-0.3
		C7.1,4.5,7.4,4.5,7.4,4.6z M23.5,5.7c0-1.1-2.9-3-2.9-3.8c0-0.1,0-0.2,0.1-0.2c0.5-0.5,2.5-0.9,2.5-1.3c0-0.2-0.4-0.2-0.6-0.2
		c-1.6,0-4,0.6-4,1.2c0,0.6,2.1,2.1,2.1,2.8c0,0.2-0.1,0.3-0.3,0.3c-0.6,0-1.9-0.7-2.5-0.7c-0.3,0-0.4,0.2-0.4,0.5
		c0,0.8,1,2.4,1,2.9c0,0.1,0,0.1-0.1,0.1c-0.3,0-1.8-1.8-2.3-1.8c-0.2,0-0.2,0.3-0.2,0.7v0.6c0,0.4,0,0.7-0.2,0.7
		C15.2,7.3,15,6,14.5,6c-0.5,0-0.5,2.3-1,2.3c-0.5,0-0.1-2.5-0.6-2.5c-0.5,0-1.2,1.7-1.6,1.7c-0.1,0-0.2-0.1-0.2-0.3
		c0-0.5,0.3-1.3,0.3-1.8c0-0.2-0.1-0.4-0.3-0.4c-0.5,0-1.7,0.9-2.2,0.9c-0.1,0-0.2,0-0.2-0.1c0-0.4,1.9-1.8,1.9-2.4
		c0-0.6-2.6-0.2-2.6-0.9c0-0.6,1.9-1.1,1.9-1.7C10.1,0.2,7.8,0,7,0c-1,0-1.6,0.1-1.6,0.4c0,0.5,2.4,0.6,2.4,1c0,0.4-2.4,1.4-2.4,2
		c0,0.5,3.5,0,3.5,0.6c0,0.6-3,3.2-3,4c0,0.2,0.1,0.3,0.3,0.3C7,8.4,9.3,6.6,10,6.6c0.2,0,0.2,0.3,0.2,0.5c0,0.5-0.2,1.2-0.2,1.7
		c0,0.4,0.1,0.7,0.5,0.7c0.7,0,1.3-1.1,1.7-1.1c0.6,0,0.2,3.3,1.1,3.3c0.7,0,1-3.5,1.5-3.5c0.5,0,0.8,1,1.3,1c0.5,0,0.3-1.8,0.8-1.8
		c0.6,0,2.4,2.1,3.2,2.1c0.2,0,0.3-0.2,0.3-0.4c0-0.9-1.3-3-1.3-3.7c0-0.2,0.1-0.2,0.2-0.2c0.7,0,2.7,1,3.6,1
		C23.3,6.1,23.5,5.9,23.5,5.7z M21.6,2.2c0,0.3,1.1,1,1.6,1c0.3,0,0.4-0.4,0.4-0.8c0-0.5-0.2-0.5-0.7-0.5C22.4,1.8,21.6,2,21.6,2.2z
		 M17.5,0.4c0-0.1-0.5-0.2-1.2-0.2c-1.1,0-1,1-1.9,1c-0.9,0-0.7-1-1.9-1c-0.7,0-1.4,0.1-1.4,0.3c0,0.2,0.8,0.1,0.8,0.7
		c0,0.6-1.8,0.8-1.8,1.2c0,0.1,0.1,0.2,0.3,0.2c0.4,0,1-0.2,1.4-0.2c0.2,0,0.5,0.1,0.5,0.3c0,0.4-1,1.2-1,1.6c0,0.1,0.1,0.1,0.2,0.1
		c0.4,0,1-0.9,1.5-0.9c0.9,0,0.3,2,0.8,2c0.5,0,0.3-2,1.1-2c0.6,0,1.1,1.4,1.5,1.4c0.1,0,0.2-0.1,0.2-0.2c0-0.4-0.5-1.1-0.5-1.6
		c0-0.3,0.2-0.4,0.5-0.4c0.4,0,1,0.2,1.2,0.2c0.1,0,0.2,0,0.2-0.2c0-0.4-1.6-0.9-1.6-1.4C16.6,0.6,17.5,0.6,17.5,0.4"/>
	<path class="st0" d="M48.7,3.2c0,1.6-1.1,2.8-3.2,3.1c0.2,0,0.4,0,0.7,0c2.4,0,3.3-1.1,3.3-2C49.5,3.8,49.2,3.4,48.7,3.2z M45.8,5
		c0-1.3-3-1.6-3-1.8c0-0.2,1.7-0.6,2.5-0.6C44,0.8,42.1,1,42.1,0.7c0-0.2,1.4-0.5,2.7-0.5c1.1,0,2.1,0.2,2.1,1.1
		c0,0.5-0.4,0.9-0.4,1.6c0,0.4,0.2,0.7,0.7,0.7c0.5,0,0.7-0.6,0.7-1.2c0-0.5-0.1-0.9-0.1-1.1c0-0.7,0.5-1.2,1.2-1.2
		c0.6,0,0.7,0.3,1.6,0.3c-0.5,0.3-0.7,0.8-0.7,1c0,0.7,0.5,1.3,0.5,2.8c0,2.8-2.6,3.8-5.8,3.8c-0.9,0-1.8-0.1-2.7-0.2
		c-0.1,0-0.2-0.1-0.2-0.1c0-0.2,1.3-0.4,1.3-1.5c0-0.4-0.1-0.9-0.1-1c0-0.1,0.1-0.1,0.1-0.1c0.3,0,0.8,1,1.8,1
		C45.1,5.9,45.8,5.8,45.8,5z M48.6,1.1c0,0.2,0.2,0.4,0.4,0.4c0.2,0,0.4-0.2,0.4-0.4c0-0.2-0.2-0.4-0.4-0.4
		C48.8,0.7,48.6,0.9,48.6,1.1"/>
	<path class="st0" d="M47.1,17.4c0-0.4-0.9-0.4-1-1.4c0-0.2-0.1-0.4-0.3-0.4c-0.3,0-0.1,1-0.4,1c-0.8,0-1.1-1.6-1.4-1.6
		c-0.1,0-0.2,0.1-0.2,0.3c0,0.2,0,0.3,0,0.5c0,0.2-0.1,0.4-0.3,0.4c-0.5,0-0.9-1.1-1.3-1.1c-0.1,0-0.2,0.1-0.2,0.1
		c0,0.2,0.4,0.6,0.4,0.8c0,0.4-1.1,0.2-1.1,0.5c0,0.2,0.2,0.2,0.4,0.2c0.4,0,1-0.2,1.3-0.2c0.2,0,0.4,0,0.4,0.3
		c0,0.2-0.6,0.6-0.6,0.8c0,0.1,0.1,0.2,0.2,0.2c0.5,0,1.3-0.8,1.9-0.8c0.1,0,0.4,0.1,0.4,0.2c0,0.2-0.6,0.6-0.6,1
		c0,0.1,0.1,0.2,0.2,0.2c0.3,0,0.7-0.8,1.3-0.8c0.2,0,0.6,0.1,0.7,0.1C47,17.5,47.1,17.5,47.1,17.4z M47.5,25.9
		c0.3-0.9,0.6-1.5,1.2-2.4c-0.6-0.3-2.1-0.9-2.1-2c0-1.2,1.5-2.2,1.8-2.2c0.1,0,0.2,0.1,0.2,0.4c0,0.6-0.3,1.7-0.3,2.2
		c0,0.5,0.3,1,0.6,1c0.3,0,1.1-1.1,1.1-2.1c0-1.9-1.6-2.4-2.1-2.4c-0.5,0-1.3,0.8-3.4,0.8c-3.8,0-4.6-3.8-4.6-5.4c0-0.1,0-0.1,0-0.1
		c0.1,0,0.5,0.5,1.7,0.5c0.6,0,1.2-0.2,2.1-0.2c2.1,0,3,1.5,4.3,3.3c0.8,0.5,2.7,1.3,2.7,3.5c0,2-2.1,3.1-2.6,5.2
		c0.8-0.1,1.3-1.5,2.1-1.5c0.4,0,0.6,0.3,0.6,0.9c0,0.8-0.4,1.9-1.3,2.7c0-0.1,0-0.2,0-0.3c0-0.5-0.2-1.2-0.8-1.2
		c-0.9,0-1.2,1-1.7,1.7c-0.5-1.8-1.2-3.4-2.4-4.4c-1.2-1-3.4-0.5-3.4-2.3c0-0.5,0.3-1.2,0.3-1.8c0-0.2,0-0.4-0.1-0.5
		c1.7,0.6,1.1,1.8,2.1,2.9c0.6,0.7,2.4,1.4,3.5,4.5c0-0.1,0-0.3,0-0.5c0-2.6-3.5-5.2-3.8-6.2c2,0.2,2.4,0.7,3.3,3.4
		C46.9,23.9,47.5,25.3,47.5,25.9"/>
	<path class="st0" d="M37.9,7.3c-1.2,0-2-0.6-2-0.9c0-0.2,0.1-0.3,0.2-0.3c0.4,0,1.2,0.6,1.5,0.6c0.1,0,0.1,0,0.1-0.1
		c0-0.3-0.3-0.8-0.3-1.1c0-0.1,0.1-0.1,0.2-0.1c0.5,0,1.2,0.2,1.6,0.2c0.1,0,0.2-0.1,0.2-0.1c0-0.4-1.1-1.1-1.1-1.4
		c0-0.2,1.4-0.5,1.4-0.9c0-0.4-1.9-0.1-1.9-0.4C37.6,2.5,38,2,38,1.8c0-0.1-0.1-0.1-0.2-0.1c-0.2,0-1,0.3-1.4,0.3
		c-0.2,0-0.4,0-0.4-0.3c0-0.4,0.7-0.8,1.8-0.8c1.7,0,2.8,1.2,2.8,3.2C40.6,6.7,38.8,7.3,37.9,7.3z M34.4,4c0-0.2-0.7-0.6-0.7-0.8
		c0,0,0-0.1,0.1-0.1c0.2,0,0.5,0.1,0.8,0.1c0.2,0,0.3-1,0.4-1c0.1,0,0.3,0.9,0.5,0.9c0.2,0,0.7-0.3,0.8-0.3c0,0,0.1,0,0.1,0.1
		c0,0.1-0.4,0.6-0.4,0.7c0,0.2,1,0.4,1,0.5c0,0.2-1,0.2-1,0.3c0,0.1,0.4,0.6,0.4,0.8c0,0,0,0.1-0.1,0.1c-0.1,0-0.7-0.2-0.8-0.2
		c-0.2,0-0.5,0.7-0.7,0.7c-0.1,0-0.1-0.1-0.1-0.2l0-0.7c0-0.1,0-0.1-0.1-0.1c-0.2,0-0.6,0-0.7,0c-0.1,0-0.1,0-0.1-0.1
		C33.7,4.6,34.4,4.1,34.4,4z M33.9,6.8c0.3,0,0.3,0.7,0.4,1.1c0,0.2,0.1,0.2,0.2,0.2c0.2,0,0.5-0.8,0.8-0.8c0.3,0,1.2,0.9,2.7,0.9
		c2.1,0,4.1-1.5,4.1-4.1c0-2.6-1.8-4.1-4.3-4.1c-1.2,0-2,0.6-2.5,0.6c-0.3,0-0.7-0.7-0.9-0.7c-0.1,0-0.2,0.2-0.2,0.5
		c0,0.2,0,0.8-0.2,0.8c-0.4,0-2.1-1.2-2.1-0.8c0,0.4,1.1,1.6,1.1,2c0,0.3-1.1,0.6-1.1,0.8c0,0.4,1.1,0.5,1.1,1
		c0,0.5-1.2,0.9-1.2,1.3c0,0.3,1.2,0.1,1.2,0.5s-0.9,1.6-0.9,2c0,0.1,0,0.1,0.1,0.1C32.7,8,33.7,6.8,33.9,6.8"/>
	<path class="st0" d="M26,37.8c0,0.2-0.1,0.3-0.2,0.5c-0.2-0.4-0.7-0.5-1-0.5c-1.8,0-1.1,2.6-3.1,2.6c-0.8,0-0.9-0.1-1.2-0.1
		c-0.1,0-0.2,0.1-0.2,0.2c0,0.5,0.7,1.6,2.5,1.6c1.8,0,3.6-1.1,3.6-2.5c0-0.2-0.1-0.5-0.2-0.7c0.1-0.1,0.2-0.2,0.4-0.2
		c0.3,0,0.4,0.3,0.7,0.3c0.3,0,0.5-0.2,0.5-0.5c0-0.2-0.1-0.4-0.3-0.5c0.1-0.1,0.2-0.3,0.2-0.5c0-0.3-0.2-0.6-0.6-0.6
		c-0.2,0-0.3,0.1-0.4,0.2c0-0.3-0.2-0.6-0.5-0.6c-0.3,0-0.5,0.2-0.5,0.5C25.8,37.2,26,37.5,26,37.8"/>
	<path class="st0" d="M16.3,34.5c1.4,0.4,2.1,1.1,2.3,2c0.1,0.9,0.3,1.6,0.7,1.9c0.4,0.5,1.3,0.9,2.1,0.9c0.6,0,1.1-0.2,1.1-0.8
		c0-0.6-0.9-2.1-2.1-2.1c-0.1,0-0.3,0-0.5,0c-0.2,0-0.4,0-0.5-0.2c-0.3-0.2-0.4-1.6-0.9-2.4c-0.6-0.9-1.2-1.1-2.1-1.1
		c-0.6,0-1.3,0.3-1.3,0.8C15,34,15.2,34.2,16.3,34.5z M21.2,38.4c-0.5,0-1.3-0.6-1.3-0.9c0-0.3,0.2-0.4,0.4-0.4c0.4,0,1.2,0.5,1.2,1
		C21.6,38.3,21.5,38.4,21.2,38.4"/>
	<path class="st0" d="M19.6,24.7c0-1.1,2.7-1.7,2.7-3.1c0-0.2-0.1-0.6-0.2-0.9c0.9,0.5,1.6,1.4,1.6,2.1c0,1.2-1.3,1.8-1.3,2.5
		c0,0.9,1.4,1,1.4,2.1c0,0.9-1.3,1.9-1.3,3.1c0,0.9,0.6,1.6,1.6,1.8c-0.3,0.1-0.6,0.1-0.9,0.1c-1.8,0-3.6-1.5-3.6-3.2
		c0-0.9,0.4-1.6,0.9-2.2c0.5,0.4,1,0.7,1.3,0.7c0.3,0,0.4-0.1,0.4-0.4C22.2,26.7,19.6,26.1,19.6,24.7z M25.2,33.6
		c-0.6,0.3-0.8,0.2-0.8,0.8c0,0.2-0.1,0.5-0.1,0.7c0,0.2,0,0.3,0.3,0.3c0.6,0,1.6-1.1,1.6-2c0-0.2-0.1-0.4-0.3-0.4
		C25.8,33.1,25.6,33.4,25.2,33.6z M25.1,32.4c0-0.8-1.6-0.8-1.6-2c0-0.3,0.2-0.8,0.6-1.4c0.2,0.9,0.5,1.4,1.3,1.7
		c1.6,0.6,1.8,1.5,1.8,2.4c0,1.6-1.1,3.6-4,3.6c-2.3,0-3.9-2-3.9-3.8c0-0.5,0.1-1,0.4-1c0.3,0,0.4,0.2,0.6,0.4c0.8,0.8,1.7,1,2.9,1
		C24.3,33.3,25.1,32.8,25.1,32.4"/>
	<path class="st0" d="M12.7,32.7c0,0.4-0.2,0.7-0.6,0.7c-0.4,0-0.7-0.2-0.7-0.6c0-0.4,0.2-0.7,0.6-0.7
		C12.3,32.1,12.6,32.4,12.7,32.7z M9.4,33.4c0.1,0.6,0.6,1.1,1.3,1c0.2,0,0.4-0.1,0.6-0.2c0.1,0.6,0.6,0.9,1.3,0.8
		c0.6-0.1,1.1-0.6,1-1.2c0-0.2-0.1-0.3-0.1-0.4c0,0,0.1,0,0.2,0c0.6-0.1,1.1-0.6,1-1.2c-0.1-0.6-0.6-1.1-1.2-1
		c-0.2,0-0.4,0.1-0.6,0.2c-0.2-0.5-0.7-1-1.3-0.9c-0.6,0.1-1,0.6-1,1.3c0,0.1,0,0.2,0.1,0.4c0,0-0.1,0-0.2,0
		C9.9,32.2,9.3,32.7,9.4,33.4"/>
</g>
</svg>
