<?xml version="1.0" encoding="utf-8"?>
<!-- Generator: Adobe Illustrator 19.1.0, SVG Export Plug-In . SVG Version: 6.00 Build 0)  -->
<svg version="1.1" id="Layer_1" xmlns="http://www.w3.org/2000/svg" xmlns:xlink="http://www.w3.org/1999/xlink" x="0px" y="0px"
	 viewBox="0 0 64 64" style="enable-background:new 0 0 64 64;" xml:space="preserve">
<style type="text/css">
	.st0{fill:#7A7A7A;}
</style>
<g>
	<path class="st0" d="M45.1,42c-0.1,0-0.1,0-0.1,0v0.2h0.1c0.1,0,0.2,0,0.2-0.1C45.3,42,45.2,42,45.1,42z"/>
	<path class="st0" d="M45.1,41.6L45.1,41.6c-0.4,0-0.7,0.3-0.7,0.7c0,0.4,0.3,0.7,0.7,0.7c0.4,0,0.7-0.3,0.7-0.7
		C45.8,41.9,45.5,41.6,45.1,41.6z M45.3,42.7c0,0,0-0.1-0.1-0.2c0-0.1-0.1-0.1-0.2-0.1H45v0.3h-0.2v-0.8c0.1,0,0.2,0,0.3,0
		c0.2,0,0.2,0,0.3,0.1c0,0,0.1,0.1,0.1,0.2c0,0.1-0.1,0.2-0.2,0.2v0c0.1,0,0.1,0.1,0.2,0.2c0,0.1,0,0.2,0.1,0.2H45.3z"/>
	<path class="st0" d="M41.9,42.8c0-0.5-0.5-0.6-0.9-0.6h-0.4v1.1h0.4C41.4,43.3,41.9,43.2,41.9,42.8z"/>
	<path class="st0" d="M22.6,37.4c0,1,0.7,1.7,1.7,1.7c0.7,0,1.4-0.3,2.1-0.7v-0.6c0-0.9,0-1.9,0.1-3C23.8,35.2,22.6,35.9,22.6,37.4z
		"/>
	<path class="st0" d="M41.1,44h-0.4v1.3h0.4c0.4,0,0.9-0.1,0.9-0.6C42,44.1,41.6,44,41.1,44z"/>
	<path class="st0" d="M32,0L0,32l32,32l32-32L32,0z M15.2,40.2c-1.1,0-1.9-0.3-2.5-0.5c-0.3-0.1-0.6-0.2-0.8-0.2
		c-0.3,0-0.4,0.1-0.5,0.3l0,0h-0.6l0-0.1c0.1-0.6,0.1-1.2,0.1-2v-2.4h0.7l0,0c0.3,2.6,1.5,4.1,3.5,4.1c1.8,0,3.1-1.2,3.1-3
		c0-0.7-0.2-1.3-0.6-1.8c-0.6-0.7-1.5-1.1-2.5-1.5c-0.4-0.2-0.7-0.3-1.1-0.5c-2-1-3-2.3-3-4.1c0-2.5,1.8-4.2,4.3-4.2
		c1.1,0,1.9,0.3,2.5,0.6c0.3,0.1,0.5,0.2,0.7,0.2c0.3,0,0.4-0.1,0.6-0.3l0,0h0.6l0,0.1c-0.1,0.7-0.1,1.3-0.1,1.9v1.8h-0.6l0,0
		c-0.2-2.3-1.4-3.6-3.2-3.6c-1.7,0-2.9,1.1-2.9,2.8c0,1.6,1.1,2.2,3.1,3c2.6,1.1,4.2,2,4.2,4.8C20.1,38.4,18.1,40.2,15.2,40.2z
		 M29.9,7.7L32,9.8l2.1-2.1l9.1,9.1L34.1,26L32,23.9L29.9,26l-9.1-9.1L29.9,7.7z M23.5,46.1c-1.5,0-2.5-0.7-2.5-2.3
		c0-1.6,0.9-2.4,2.5-2.4c0.3,0,0.7,0.1,1,0.2l-0.1,0.8c-0.3-0.2-0.7-0.2-1-0.2c-0.9,0-1.5,0.7-1.5,1.6c0,0.9,0.6,1.6,1.5,1.6
		c0.4,0,0.8-0.1,1-0.2l0,0.8C24.2,46,23.9,46.1,23.5,46.1z M26.4,38.8c-1,0.8-2.1,1.1-3.1,1.1c-1.4,0-2.3-0.9-2.3-2.2
		c0-1.8,1.8-2.9,5.4-3.3l0.1-1.8v-0.2c0-1.4-0.6-2-1.8-2c-0.9,0-1.6,0.4-1.6,1.1c0,0.2,0.1,0.9,0.1,1.1c0,0.4-0.3,0.8-0.8,0.8
		c-0.4,0-0.8-0.3-0.8-0.8v0c0-1.5,1.5-2.6,3.6-2.6c2.1,0,3,1.1,3,3.4v0.4l-0.1,3.3c0,0.8,0,1.6,0.1,2.2l1.3,0.1v0.5h-3L26.4,38.8z
		 M30.1,46h-2.7v-4.5h0.9v3.8h1.8V46z M36.6,44.4c0,1.2-0.7,1.7-1.8,1.7c-1.2,0-1.8-0.5-1.8-1.7v-2.9h0.9v2.6c0,0.8,0.2,1.3,0.9,1.3
		c0.7,0,0.9-0.5,0.9-1.3v-2.6h0.9V44.4z M41.4,46h-1.6v-4.5h1.6c0.6,0,1.5,0.2,1.5,1.2c0,0.5-0.4,0.9-0.9,1v0c0.6,0.1,1,0.5,1,1
		C43,45.8,41.9,46,41.4,46z M45.1,43.1c-0.5,0-0.9-0.4-0.9-0.9c0-0.5,0.4-0.9,0.9-0.9h0c0.5,0,0.9,0.4,0.9,0.9
		C46,42.8,45.6,43.1,45.1,43.1z M46.2,39.8H42v-0.5l1.3-0.2c0.1-1,0.1-2.3,0.1-3.8c0-2.9-0.1-4.2-1.9-4.2c-0.6,0-1.5,0.3-2.5,0.9
		c0.1,0.8,0.1,1.7,0.1,2.6v3.6v0.8l1.2,0.1v0.5h-4.2v-0.5l1.2-0.2c0.1-1,0.1-2.3,0.1-3.8c0-2.9-0.2-4.2-1.9-4.2
		c-0.6,0-1.5,0.3-2.4,0.9v4.9c0,0.8,0,1.6,0.1,2.2l1.3,0.1v0.5H30v-0.5l1.3-0.1c0-0.6,0.1-1.3,0.1-2.2V33c0-0.8,0-1.5-0.1-2.1
		l-1.4-0.1l0.1-0.5l3.1-0.2v1.6c1.4-0.9,2.5-1.4,3.5-1.4c1.1,0,1.8,0.5,2.3,1.5c1.5-1,2.7-1.5,3.7-1.5c1.9,0,2.5,1.4,2.5,4.1v1.1
		c0,0.9,0,2.2-0.1,3.7l1.2,0.1V39.8z M45.9,30.8l0.3-2.6h1.4l-1.3,2.6H45.9z M50,40.2c-0.7,0-1.2-0.2-1.6-0.3
		c-0.2-0.1-0.4-0.1-0.5-0.1c-0.1,0-0.2,0-0.3,0.1l0,0H47l0-0.1c0-0.4,0.1-0.8,0.1-1.3V37h0.6l0,0.1c0.2,1.6,0.9,2.5,2.1,2.5
		c1.1,0,1.9-0.8,1.9-1.8c0-0.4-0.1-0.8-0.4-1.1c-0.4-0.4-0.9-0.7-1.5-0.9l-0.7-0.3c-1.3-0.6-1.9-1.5-1.9-2.7c0-1.6,1.2-2.8,2.8-2.8
		c0.7,0,1.2,0.2,1.6,0.4c0.2,0.1,0.3,0.1,0.4,0.1c0.1,0,0.2,0,0.3-0.2l0,0h0.5l0,0.1c-0.1,0.5-0.1,0.8-0.1,1.2v1.2h-0.5l0-0.1
		c-0.1-1.4-0.8-2.2-2-2.2c-1.1,0-1.8,0.7-1.8,1.7c0,1,0.7,1.3,1.9,1.8c1.7,0.7,2.7,1.3,2.7,3.1C53.1,39,51.9,40.2,50,40.2z"/>
	<rect x="27" y="11.9" transform="matrix(-0.7072 0.7071 -0.7071 -0.7072 66.5637 6.1882)" class="st0" width="10" height="10"/>
</g>
</svg>
