<?xml version="1.0" encoding="utf-8"?>
<!-- Generator: Adobe Illustrator 19.1.0, SVG Export Plug-In . SVG Version: 6.00 Build 0)  -->
<svg version="1.1" id="linkedin" xmlns="http://www.w3.org/2000/svg" xmlns:xlink="http://www.w3.org/1999/xlink" x="0px" y="0px"
	 viewBox="-99 101 100 100" style="enable-background:new -99 101 100 100;" xml:space="preserve">
<style type="text/css">
	.st0{fill:#46AE6B;}
	.st1{fill:#F7F7F7;}
</style>
<circle class="st0" cx="-49" cy="151" r="48"/>
<path class="st1" d="M-32.7,126.5h-32.5c-4.5,0-8.2,3.7-8.2,8.2v32.5c0,4.5,3.7,8.2,8.2,8.2h32.5c4.5,0,8.2-3.7,8.2-8.2v-32.5
	C-24.5,130.2-28.2,126.5-32.7,126.5z M-55.1,166.3h-6.1v-21.4h6.1V166.3z M-58.2,141.8c-1.7,0-3.1-1.4-3.1-3.1s1.4-3.1,3.1-3.1
	s3.1,1.4,3.1,3.1S-56.5,141.8-58.2,141.8z M-33.7,166.3h-6.1v-12.2c0-1.7-1.4-3.1-3.1-3.1s-3.1,1.4-3.1,3.1v12.2h-6.1v-21.4h6.1v3.8
	c1.3-1.7,3.2-3.8,5.4-3.8c3.8,0,6.9,3.4,6.9,7.7L-33.7,166.3L-33.7,166.3z"/>
</svg>
